<?xml version="1.0" encoding="UTF-8" standalone="no"?>
<svg
   version="1.1"
   width="600px"
   height="212px"
   viewBox="0 0 600 180"
   id="svg6"
   sodipodi:docname="aa.svg"
   xml:space="preserve"
   inkscape:version="1.3.2 (091e20e, 2023-11-25, custom)"
   xmlns:inkscape="http://www.inkscape.org/namespaces/inkscape"
   xmlns:sodipodi="http://sodipodi.sourceforge.net/DTD/sodipodi-0.dtd"
   xmlns="http://www.w3.org/2000/svg"
   xmlns:svg="http://www.w3.org/2000/svg"><defs
     id="defs6" /><sodipodi:namedview
     id="namedview6"
     pagecolor="#ffffff"
     bordercolor="#000000"
     borderopacity="0.25"
     inkscape:showpageshadow="2"
     inkscape:pageopacity="0.0"
     inkscape:pagecheckerboard="0"
     inkscape:deskcolor="#d1d1d1"
     inkscape:zoom="1.5957043"
     inkscape:cx="312.40124"
     inkscape:cy="128.15658"
     inkscape:window-width="1920"
     inkscape:window-height="991"
     inkscape:window-x="1911"
     inkscape:window-y="-9"
     inkscape:window-maximized="1"
     inkscape:current-layer="g6" /><g
     id="g6"><path
       d="M 39.6,4 V 124 H 80.4 V 84 H 39.6 V 44 H 120 V 164 H 0 V 4"
       id="path1" /><path
       d="M 260,44 V 83.6 H 179.6 V 164 H 140 V 44"
       id="path2" /><rect
       x="280"
       y="44"
       width="40"
       height="40"
       id="rect2" /><rect
       x="280"
       y="104"
       width="40"
       height="60"
       id="rect3" /><path
       d="m 460,44 v 39.6 h -80.4 v 40.8 H 460 V 164 H 340 V 44"
       id="path3" /><path
       d="m 520,44 v 39.6 h 40 v 40.8 H 520 V 164 H 480 V 44"
       id="path4" /><rect
       x="560"
       y="44"
       width="40"
       height="40"
       id="rect4" /><rect
       x="560"
       y="124"
       width="40"
       height="40"
       id="rect5" /><path
       d="m 432.35352,-3.332031 0.0332,7.27539 0.0488,7.291016 6.66797,0.04883 6.65039,0.03125 V 3.992189 -3.332029 h -6.70118 z"
       id="path31" /><path
       d="m 380,-16 v 40 h 220 v -40 z m 21.00195,8.599609 c 8.76844,0 8.52114,-0.01614 9.82813,1.074219 0.94302,0.781155 1.17383,1.497022 1.17383,3.775391 v 2.001953 l -2.26758,-0.04883 -2.28125,-0.04883 -0.0508,-1.34961 -0.0488,-1.335937 h -6.36914 -6.35352 l 0.0332,7.27539 0.0488,7.291016 h 6.28711 6.28711 l 0.0488,-1.351563 0.0508,-1.333984 h 2.31641 2.33203 l -0.0664,2.179688 c -0.0496,2.131902 -0.0671,2.198652 -0.54687,2.898437 -0.34743,0.455674 -0.82651,0.862019 -1.48828,1.1875 l -0.97657,0.488281 h -7.9414 -7.95703 l -0.95899,-0.455078 C 391.10889,14.35943 390.49596,13.708219 390.18162,12.796871 390.04929,12.406297 390,9.687443 390,3.861328 c 0,-8.16958 0.0168,-8.414145 0.34766,-9.097656 0.38051,-0.797429 1.09121,-1.43039 2.05078,-1.853516 0.61213,-0.276659 1.27443,-0.310547 8.60351,-0.310547 z m 75.60742,0 h 9.69532 l -0.0508,1.986328 -0.0488,2.001954 -7.3125,0.04883 -7.33008,0.03125 v 2.603515 2.605469 l 6.25391,0.03125 6.23828,0.04883 0.0488,1.9375 c 0.0331,1.448392 -0.0171,1.968113 -0.16602,2.082031 -0.11581,0.0651 -2.94518,0.13086 -6.28711,0.13086 h -6.08789 l -0.0332,4.589844 -0.0488,4.605468 h -2.31641 -2.3164 l -0.0488,-11.148437 c -0.0165,-6.135322 -8.1e-4,-11.245457 0.0488,-11.359375 0.0496,-0.146467 2.16792,-0.195313 9.76171,-0.195313 z m 34.41211,0 h 9.69532 l -0.0508,1.986328 -0.0488,2.001954 -7.36328,0.08008 -7.36133,0.08203 v 2.521484 2.523438 l 6.28711,0.08203 6.28711,0.08008 0.0488,1.986328 c 0.0165,1.106637 0.0165,2.016929 0,2.033203 -0.0331,0.01628 -2.87819,0.08204 -6.33593,0.13086 l -6.28711,0.08203 -0.0508,4.605469 -0.0312,4.605469 -2.28321,-0.04883 -2.26757,-0.04883 -0.0488,-11.148437 c -0.0165,-6.135322 -8.1e-4,-11.245457 0.0488,-11.359375 0.0496,-0.146467 2.16792,-0.195313 9.76171,-0.195313 z m 34.44532,0 h 9.66211 l -0.0508,1.986328 -0.0488,2.001954 -7.36328,0.08008 -7.36133,0.08203 v 2.521484 2.523438 l 6.28711,0.08203 6.28711,0.08008 0.0488,1.986328 c 0.0166,1.106637 0.0166,2.016929 0,2.033203 -0.0331,0.01628 -2.87819,0.08204 -6.33593,0.13086 l -6.28711,0.08203 v 2.521484 2.523438 l 7.41211,0.04883 7.39453,0.03125 v 2.035156 2.033203 h -9.76172 -9.75977 V 4.105469 c 0,-6.216693 0.0491,-11.341803 0.11524,-11.390625 0.0496,-0.0651 4.45102,-0.115235 9.76172,-0.115235 z m 25.03125,0 9.72656,0.0332 9.71289,0.04883 v 1.953125 1.953125 l -7.39648,0.04883 -7.41016,0.03125 v 2.603515 2.605469 l 6.25195,0.03125 6.23828,0.04883 0.0488,1.9375 c 0.0331,1.448392 -0.0152,1.968113 -0.16406,2.082031 -0.11581,0.0651 -2.94621,0.13086 -6.30469,0.13086 h -6.08789 l 0.0488,2.554687 0.0508,2.572266 7.3125,0.04883 7.32813,0.03125 0.084,0.375 c 0.0496,0.195289 0.0819,1.091255 0.0488,1.986328 l -0.0488,1.626953 -9.71289,0.04883 -9.72656,0.03125 V 3.992187 Z m -131.19532,0.04883 c 9.33094,0.03255 8.91739,-0.01548 10.15821,1.205079 1.02574,1.008992 1.00781,0.909985 1.00781,10.21875 v 8.46289 l -0.41406,0.716797 c -0.23162,0.390578 -0.67785,0.927764 -0.99219,1.171875 -1.14155,0.895074 -1.81923,0.958984 -9.95898,0.958984 -4.69856,0 -7.69428,-0.06381 -8.24024,-0.177734 -1.15809,-0.244111 -2.29848,-1.042426 -2.76172,-1.9375 l -0.36328,-0.732422 -0.0176,-8.558594 v -8.560546 l 0.38086,-0.701172 c 0.4467,-0.829978 1.30583,-1.561887 2.19922,-1.871094 0.52942,-0.195289 2.20228,-0.227861 9.00195,-0.195313 z"
       id="path30" /></g></svg>
