<?xml version="1.0" encoding="UTF-8" standalone="no"?>
<svg
   xml:space="preserve"
   viewBox="0 0 600 180"
   version="1.1"
   id="svg2"
   sodipodi:docname="brand.svg"
   inkscape:version="1.3.2 (091e20e, 2023-11-25, custom)"
   xmlns:inkscape="http://www.inkscape.org/namespaces/inkscape"
   xmlns:sodipodi="http://sodipodi.sourceforge.net/DTD/sodipodi-0.dtd"
   xmlns="http://www.w3.org/2000/svg"
   xmlns:svg="http://www.w3.org/2000/svg"><defs
   id="defs2" /><sodipodi:namedview
   id="namedview2"
   pagecolor="#ffffff"
   bordercolor="#000000"
   borderopacity="0.25"
   inkscape:showpageshadow="2"
   inkscape:pageopacity="0.0"
   inkscape:pagecheckerboard="0"
   inkscape:deskcolor="#d1d1d1"
   inkscape:zoom="2.0316667"
   inkscape:cx="300"
   inkscape:cy="89.827728"
   inkscape:window-width="1920"
   inkscape:window-height="991"
   inkscape:window-x="-9"
   inkscape:window-y="-9"
   inkscape:window-maximized="1"
   inkscape:current-layer="svg2" />
  <path
   d="M 39.6,20 V 140 H 80.4 V 100 H 39.6 V 60 H 120 V 180 H 0 V 20 M 260,60 V 99.6 H 179.6 V 180 H 140 V 60 m 140,0 h 40 v 40 h -40 z m 0,60 h 40 v 60 H 280 Z M 460,60 v 39.6 h -80.4 v 40.8 H 460 V 180 H 340 V 60 m 180,0 v 39.6 h 40 v 40.8 H 520 V 180 H 480 V 60 m 80,0 h 40 v 40 h -40 z m 0,80 h 40 v 40 H 560 Z M 432.4,12.7 v 14.5 h 6.7 l 6.7,0.1 V 12.7 H 439 Z"
   id="path1"
   style="display:inline;fill:#ffffff" />
  <path
   d="M 380,0 V 40 H 600 V 0 Z m 21,8.6 c 8.8,0 8.5,0 9.8,1 1,0.9 1.2,1.6 1.2,3.8 v 2 h -4.5 L 407.4,14 v -1.3 h -12.8 v 7.2 l 0.1,7.3 h 12.6 v -2.7 h 4.7 v 2.2 c 0,2.2 -0.1,2.2 -0.6,3 -0.3,0.4 -0.8,0.8 -1.5,1.1 l -1,0.5 H 393 l -0.9,-0.5 c -1,-0.4 -1.6,-1 -2,-2 a 87,87 0 0 1 -0.1,-9 c 0,-8.1 0,-8.4 0.3,-9 a 4,4 0 0 1 2.1,-1.9 C 393,8.6 393.7,8.6 401,8.6 Z m 75.6,0 h 9.7 v 4 H 471.6 V 18 H 484 v 2 c 0,1.4 0,2 -0.2,2 0,0.1 -3,0.2 -6.2,0.2 h -6.1 v 4.6 l -0.1,4.6 h -4.6 V 8.8 c 0.1,-0.2 2.2,-0.2 9.8,-0.2 z m 34.4,0 h 9.7 v 4 h -7.4 l -7.4,0.2 v 5 h 6.3 l 6.3,0.2 v 4 l -6.3,0.1 h -6.3 v 9.3 h -2.4 l -2.2,-0.1 V 8.8 c 0,-0.2 2.1,-0.2 9.7,-0.2 z m 34.5,0 h 9.6 v 4 h -7.4 l -7.4,0.2 v 5 h 6.3 l 6.3,0.2 v 4 l -6.3,0.1 h -6.3 v 5.1 h 7.4 l 7.4,0.1 v 4 H 535.6 V 20.2 l 0.1,-11.4 9.8,-0.1 z m 25,0 h 19.4 v 4 H 575.1 V 18 h 12.5 v 4 c -0.2,0.1 -3,0.2 -6.4,0.2 h -6 v 5.1 h 7.3 l 7.4,0.1 v 4 H 570.5 V 20 Z m -131.2,0 c 9.3,0 9,0 10.2,1.3 1,1 1,0.9 1,10.2 v 8.4 l -0.4,0.8 a 5,5 0 0 1 -1,1.1 c -1.2,1 -1.9,1 -10,1 -4.7,0 -7.7,0 -8.2,-0.2 -1.2,-0.2 -2.3,-1 -2.8,-2 l -0.4,-0.7 V 11.4 l 0.4,-0.7 c 0.4,-0.8 1.3,-1.5 2.2,-1.9 0.5,-0.2 2.2,-0.2 9,-0.2 z"
   id="path2"
   style="display:none" />
<path
   style="fill:#ffffff;stroke-width:0.492207"
   d="M 380.4758,19.934372 V 0.24610336 H 490.2379 600 V 19.934372 39.622642 H 490.2379 380.4758 Z m 29.82987,10.877542 c 1.50687,-0.918869 2.16357,-2.521088 2.16357,-5.27869 0,-1.088821 -0.18566,-1.168991 -2.70714,-1.168991 -2.55947,0 -2.70714,0.06712 -2.70714,1.230517 v 1.230517 h -6.15258 -6.15259 v -6.890895 -6.890894 h 6.15259 6.15258 v 1.230517 c 0,1.166812 0.14344,1.230517 2.77055,1.230517 h 2.77055 l -0.34248,-2.581757 c -0.57365,-4.3244055 -0.53459,-4.3091373 -11.02661,-4.3091373 -12.25011,0 -11.39924,-0.844387 -11.39924,11.3124773 0,9.54375 0.10977,10.10144 2.21493,11.252872 0.59342,0.324574 4.11238,0.543646 8.85972,0.551559 6.87518,0.01146 8.06935,-0.105198 9.40329,-0.918612 z m 39.39841,-0.726322 c 1.21196,-1.40996 1.21623,-1.451711 1.06401,-10.409071 C 450.56422,7.6797918 451.54113,8.6136177 439.19471,8.6136177 h -9.54524 l -1.20702,1.3023903 c -1.18517,1.278828 -1.20701,1.457508 -1.20701,9.876493 0,5.192016 0.20944,8.965444 0.53096,9.566214 1.08574,2.028727 3.08317,2.400332 12.18681,2.267261 l 8.53402,-0.124745 z m 21.82996,-3.014222 v -4.675964 h 6.39869 6.39869 v -2.21493 -2.21493 h -6.15258 -6.15259 v -2.461034 -2.461034 h 7.137 7.137 v -2.21493 -2.2149303 h -9.84414 -9.84413 V 20.180476 31.747334 h 2.46103 2.46103 z m 34.45448,0 v -4.675964 h 6.39868 6.39869 v -2.157524 c 0,-2.661175 -0.23792,-2.74859 -7.50615,-2.757822 l -5.29122,-0.0067 v -2.21493 -2.214931 h 7.3831 7.3831 v -2.21493 -2.2149303 h -9.84414 -9.84413 V 20.180476 31.747334 h 2.46103 2.46104 z m 49.22067,2.21493 v -2.461033 h -7.3831 -7.3831 v -2.214931 -2.21493 h 6.39868 6.39869 v -2.153404 c 0,-2.018048 -0.0967,-2.172742 -1.53815,-2.461034 -0.84598,-0.169196 -3.72538,-0.307629 -6.39868,-0.307629 h -4.86054 v -2.21493 -2.214931 h 7.3831 7.3831 v -2.21493 -2.2149303 h -9.84414 -9.84413 V 20.180476 31.747334 h 9.84413 9.84414 z m 34.94668,0.301833 v -2.159201 l -7.38311,-0.357562 -7.3831,-0.357562 v -2.159201 -2.159201 h 6.15259 6.15258 v -2.21493 -2.21493 h -6.15258 -6.15259 v -2.461034 -2.461034 h 7.3831 7.38311 v -2.21493 -2.2149303 h -9.84414 -9.84413 V 20.180476 31.747334 h 9.84413 9.84414 z"
   id="path3" /></svg>
