<svg xmlns="http://www.w3.org/2000/svg" xml:space="preserve" viewBox="0 0 600 180">
  <path d="M39.6 20v120h40.8v-40H39.6V60H120v120H0V20m260 40v39.6h-80.4V180H140V60m140 0h40v40h-40zm0 60h40v60h-40Zm180-60v39.6h-80.4v40.8H460V180H340V60m180 0v39.6h40v40.8h-40V180h-40V60m80 0h40v40h-40zm0 80h40v40h-40ZM432.4 12.7v14.5h6.7l6.7.1V12.7H439Z"/>
  <path d="M380 0v40h220V0Zm21 8.6c8.8 0 8.5 0 9.8 1 1 .9 1.2 1.6 1.2 3.8v2h-4.5l-.1-1.4v-1.3h-12.8v7.2l.1 7.3h12.6v-2.7h4.7v2.2c0 2.2-.1 2.2-.6 3-.3.4-.8.8-1.5 1.1l-1 .5H393l-.9-.5c-1-.4-1.6-1-2-2a87 87 0 0 1-.1-9c0-8.1 0-8.4.3-9a4 4 0 0 1 2.1-1.9c.6-.3 1.3-.3 8.6-.3Zm75.6 0h9.7v4h-14.7V18H484v2c0 1.4 0 2-.2 2 0 .1-3 .2-6.2.2h-6.1v4.6l-.1 4.6h-4.6V8.8c.1-.2 2.2-.2 9.8-.2zm34.4 0h9.7v4h-7.4l-7.4.2v5h6.3l6.3.2v4l-6.3.1h-6.3v9.3h-2.4l-2.2-.1V8.8c0-.2 2.1-.2 9.7-.2zm34.5 0h9.6v4h-7.4l-7.4.2v5h6.3l6.3.2v4l-6.3.1h-6.3v5.1h7.4l7.4.1v4h-19.5V20.2l.1-11.4 9.8-.1zm25 0h19.4v4h-14.8V18h12.5v4c-.2.1-3 .2-6.4.2h-6v5.1h7.3l7.4.1v4h-19.4V20Zm-131.2 0c9.3 0 9 0 10.2 1.3 1 1 1 .9 1 10.2v8.4l-.4.8a5 5 0 0 1-1 1.1c-1.2 1-1.9 1-10 1-4.7 0-7.7 0-8.2-.2-1.2-.2-2.3-1-2.8-2l-.4-.7V11.4l.4-.7c.4-.8 1.3-1.5 2.2-1.9.5-.2 2.2-.2 9-.2z"/>
</svg>
